<?xml version="1.0" encoding="UTF-8"?>
<svg xmlns="http://www.w3.org/2000/svg" xmlns:xlink="http://www.w3.org/1999/xlink" width="27px" height="27px" viewBox="0 0 27 27" version="1.1">
<g id="surface1">
<path style=" stroke:none;fill-rule:nonzero;fill:rgb(9.803922%,46.666667%,95.294118%);fill-opacity:1;" d="M 27 13.5 C 27 20.957031 20.957031 27 13.5 27 C 6.042969 27 0 20.957031 0 13.5 C 0 6.042969 6.042969 0 13.5 0 C 20.957031 0 27 6.042969 27 13.5 Z M 27 13.5 "/>
<path style=" stroke:none;fill-rule:nonzero;fill:rgb(100%,100%,100%);fill-opacity:1;" d="M 18.753906 17.402344 L 19.351562 13.5 L 15.609375 13.5 L 15.609375 10.96875 C 15.609375 9.902344 16.132812 8.859375 17.808594 8.859375 L 19.511719 8.859375 L 19.511719 5.535156 C 19.511719 5.535156 17.964844 5.273438 16.488281 5.273438 C 13.40625 5.273438 11.390625 7.140625 11.390625 10.523438 L 11.390625 13.5 L 7.960938 13.5 L 7.960938 17.402344 L 11.390625 17.402344 L 11.390625 26.835938 C 12.089844 26.945312 12.792969 27 13.5 27 C 14.207031 27 14.910156 26.945312 15.609375 26.835938 L 15.609375 17.402344 Z M 18.753906 17.402344 "/>
</g>
</svg>
