<svg width="187" height="97" viewBox="0 0 187 97" fill="none" xmlns="http://www.w3.org/2000/svg">
<rect y="59" width="22.7473" height="7" fill="#44A0FF"/>
<path d="M0 19L6 19V59H0V19Z" fill="#44A0FF"/>
<rect width="22.7473" height="7" transform="matrix(-1 0 0 1 90 59)" fill="#44A0FF"/>
<path d="M90 19H84V59H90V19Z" fill="#44A0FF"/>
<path d="M0 18.5L45.4945 0L90 18.5V24.5L45.4945 6.5L0 24.5V18.5Z" fill="#44A0FF"/>
<rect x="48" y="59" width="22.7473" height="7" fill="#44A0FF"/>
<path d="M48 19L54 19V59H48V19Z" fill="#44A0FF"/>
<rect width="22.7473" height="7" transform="matrix(-1 0 0 1 138 59)" fill="#44A0FF"/>
<path d="M138 19H132V59H138V19Z" fill="#44A0FF"/>
<path d="M48 18.5L93.4945 0L138 18.5V24.5L93.4945 6.5L48 24.5V18.5Z" fill="#44A0FF"/>
<rect x="97" y="59" width="22.7473" height="7" fill="#44A0FF"/>
<path d="M97 19L103 19V59H97V19Z" fill="#44A0FF"/>
<rect width="22.7473" height="7" transform="matrix(-1 0 0 1 187 59)" fill="#44A0FF"/>
<path d="M187 19H181V59H187V19Z" fill="#44A0FF"/>
<path d="M97 18.5L142.495 0L187 18.5V24.5L142.495 6.5L97 24.5V18.5Z" fill="#44A0FF"/>
<path d="M50.7643 90H48.9643V83.34H41.6443V90H39.8443V75.72H41.6443V81.76H48.9643V75.72H50.7643V90ZM63.7485 84.62C63.7485 85.5133 63.6285 86.3067 63.3885 87C63.1618 87.68 62.8285 88.26 62.3885 88.74C61.9618 89.22 61.4352 89.5867 60.8085 89.84C60.1952 90.08 59.5085 90.2 58.7485 90.2C58.0418 90.2 57.3885 90.08 56.7885 89.84C56.1885 89.5867 55.6685 89.22 55.2285 88.74C54.7885 88.26 54.4418 87.68 54.1885 87C53.9485 86.3067 53.8285 85.5133 53.8285 84.62C53.8285 83.4333 54.0285 82.4333 54.4285 81.62C54.8285 80.7933 55.4018 80.1667 56.1485 79.74C56.8952 79.3 57.7818 79.08 58.8085 79.08C59.7818 79.08 60.6352 79.3 61.3685 79.74C62.1152 80.1667 62.6952 80.7933 63.1085 81.62C63.5352 82.4333 63.7485 83.4333 63.7485 84.62ZM55.6485 84.62C55.6485 85.46 55.7552 86.1933 55.9685 86.82C56.1952 87.4333 56.5418 87.9067 57.0085 88.24C57.4752 88.5733 58.0685 88.74 58.7885 88.74C59.5085 88.74 60.1018 88.5733 60.5685 88.24C61.0352 87.9067 61.3752 87.4333 61.5885 86.82C61.8152 86.1933 61.9285 85.46 61.9285 84.62C61.9285 83.7667 61.8152 83.04 61.5885 82.44C61.3618 81.84 61.0152 81.38 60.5485 81.06C60.0952 80.7267 59.5018 80.56 58.7685 80.56C57.6752 80.56 56.8818 80.92 56.3885 81.64C55.8952 82.36 55.6485 83.3533 55.6485 84.62ZM75.1579 81.98C75.1579 82.6467 74.9579 83.1667 74.5579 83.54C74.1579 83.9133 73.6446 84.1667 73.0179 84.3V84.38C73.6846 84.4733 74.2646 84.7133 74.7579 85.1C75.2512 85.4733 75.4979 86.06 75.4979 86.86C75.4979 87.3133 75.4112 87.7333 75.2379 88.12C75.0779 88.5067 74.8246 88.84 74.4779 89.12C74.1312 89.4 73.6846 89.62 73.1379 89.78C72.5912 89.9267 71.9312 90 71.1579 90H66.5379V79.28H71.1379C71.8979 79.28 72.5779 79.3667 73.1779 79.54C73.7912 79.7 74.2712 79.98 74.6179 80.38C74.9779 80.7667 75.1579 81.3 75.1579 81.98ZM73.6779 86.86C73.6779 86.2467 73.4446 85.8067 72.9779 85.54C72.5112 85.2733 71.8246 85.14 70.9179 85.14H68.2979V88.58H70.9579C71.8379 88.58 72.5112 88.4533 72.9779 88.2C73.4446 87.9333 73.6779 87.4867 73.6779 86.86ZM73.3779 82.2C73.3779 81.6933 73.1912 81.3267 72.8179 81.1C72.4579 80.86 71.8646 80.74 71.0379 80.74H68.2979V83.68H70.7179C71.5846 83.68 72.2446 83.56 72.6979 83.32C73.1512 83.08 73.3779 82.7067 73.3779 82.2ZM78.0613 90V79.28H79.8213V83.68H82.6013C83.5347 83.68 84.3013 83.7933 84.9013 84.02C85.5013 84.2467 85.948 84.5867 86.2413 85.04C86.5347 85.48 86.6813 86.04 86.6813 86.72C86.6813 87.3867 86.5347 87.9667 86.2413 88.46C85.9613 88.9533 85.5147 89.3333 84.9013 89.6C84.3013 89.8667 83.508 90 82.5213 90H78.0613ZM82.3613 88.58C83.1213 88.58 83.7413 88.4533 84.2213 88.2C84.7013 87.9333 84.9413 87.4733 84.9413 86.82C84.9413 86.1667 84.7213 85.7267 84.2813 85.5C83.8413 85.26 83.208 85.14 82.3813 85.14H79.8213V88.58H82.3613ZM88.4613 90V79.28H90.2213V90H88.4613ZM102.308 74.84C102.254 75.5067 102.088 76.0667 101.808 76.52C101.541 76.9733 101.141 77.3133 100.608 77.54C100.074 77.7667 99.3811 77.88 98.5277 77.88C97.6611 77.88 96.9611 77.7667 96.4277 77.54C95.9077 77.3133 95.5277 76.98 95.2877 76.54C95.0477 76.0867 94.9011 75.52 94.8477 74.84H96.4877C96.5544 75.56 96.7411 76.0467 97.0477 76.3C97.3677 76.54 97.8744 76.66 98.5677 76.66C99.1811 76.66 99.6611 76.5333 100.008 76.28C100.368 76.0133 100.581 75.5333 100.648 74.84H102.308ZM95.2877 85.82C95.2877 85.94 95.2811 86.1133 95.2677 86.34C95.2677 86.5533 95.2611 86.7867 95.2477 87.04C95.2344 87.28 95.2211 87.5133 95.2077 87.74C95.1944 87.9533 95.1811 88.1267 95.1677 88.26L100.908 79.28H103.068V90H101.428V83.68C101.428 83.4667 101.428 83.1867 101.428 82.84C101.441 82.4933 101.454 82.1533 101.468 81.82C101.481 81.4733 101.494 81.2133 101.508 81.04L95.8077 90H93.6277V79.28H95.2877V85.82ZM120.103 79.28V88.52H121.663V93.72H119.963V90H112.503V93.72H110.823V88.52H111.683C112.297 87.6667 112.803 86.74 113.203 85.74C113.617 84.7267 113.923 83.6733 114.123 82.58C114.337 81.4733 114.45 80.3733 114.463 79.28H120.103ZM116.023 80.66C115.97 81.5667 115.83 82.5067 115.603 83.48C115.377 84.44 115.083 85.36 114.723 86.24C114.377 87.12 113.97 87.88 113.503 88.52H118.403V80.66H116.023ZM133.084 84.62C133.084 85.5133 132.964 86.3067 132.724 87C132.498 87.68 132.164 88.26 131.724 88.74C131.298 89.22 130.771 89.5867 130.144 89.84C129.531 90.08 128.844 90.2 128.084 90.2C127.378 90.2 126.724 90.08 126.124 89.84C125.524 89.5867 125.004 89.22 124.564 88.74C124.124 88.26 123.778 87.68 123.524 87C123.284 86.3067 123.164 85.5133 123.164 84.62C123.164 83.4333 123.364 82.4333 123.764 81.62C124.164 80.7933 124.738 80.1667 125.484 79.74C126.231 79.3 127.118 79.08 128.144 79.08C129.118 79.08 129.971 79.3 130.704 79.74C131.451 80.1667 132.031 80.7933 132.444 81.62C132.871 82.4333 133.084 83.4333 133.084 84.62ZM124.984 84.62C124.984 85.46 125.091 86.1933 125.304 86.82C125.531 87.4333 125.878 87.9067 126.344 88.24C126.811 88.5733 127.404 88.74 128.124 88.74C128.844 88.74 129.438 88.5733 129.904 88.24C130.371 87.9067 130.711 87.4333 130.924 86.82C131.151 86.1933 131.264 85.46 131.264 84.62C131.264 83.7667 131.151 83.04 130.924 82.44C130.698 81.84 130.351 81.38 129.884 81.06C129.431 80.7267 128.838 80.56 128.104 80.56C127.011 80.56 126.218 80.92 125.724 81.64C125.231 82.36 124.984 83.3533 124.984 84.62ZM147.374 79.28V90H145.794V83.16C145.794 82.88 145.8 82.5867 145.814 82.28C145.84 81.9733 145.867 81.6733 145.894 81.38H145.834L142.334 90H140.854L137.454 81.38H137.394C137.42 81.6733 137.434 81.9733 137.434 82.28C137.447 82.5867 137.454 82.9 137.454 83.22V90H135.874V79.28H138.214L141.594 87.9L145.034 79.28H147.374Z" fill="#44A0FF"/>
</svg>
