<?xml version="1.0" encoding="UTF-8"?>
<svg xmlns="http://www.w3.org/2000/svg" xmlns:xlink="http://www.w3.org/1999/xlink" width="27px" height="27px" viewBox="0 0 27 27" version="1.1">
<g id="surface1">
<rect x="0" y="0" width="27" height="27" style="fill:rgb(31.372549%,67.058824%,94.509804%);fill-opacity:1;stroke:none;"/>
<path style=" stroke:none;fill-rule:nonzero;fill:rgb(100%,100%,100%);fill-opacity:1;" d="M 3.578125 20.015625 C 5.375 21.152344 7.503906 21.8125 9.789062 21.8125 C 16.210938 21.8125 21.414062 16.609375 21.414062 10.191406 C 21.414062 10.03125 21.410156 9.871094 21.402344 9.710938 C 21.636719 9.53125 23.070312 8.378906 23.421875 7.640625 C 23.421875 7.640625 22.257812 8.125 21.117188 8.238281 C 21.113281 8.238281 21.113281 8.238281 21.109375 8.238281 C 21.109375 8.238281 21.113281 8.238281 21.117188 8.234375 C 21.21875 8.164062 22.691406 7.164062 22.890625 5.972656 C 22.890625 5.972656 22.066406 6.410156 20.910156 6.796875 C 20.71875 6.859375 20.519531 6.921875 20.3125 6.980469 C 19.566406 6.1875 18.511719 5.691406 17.335938 5.691406 C 15.082031 5.691406 13.257812 7.515625 13.257812 9.765625 C 13.257812 10.082031 13.292969 10.394531 13.363281 10.691406 C 13.046875 10.675781 8.253906 10.410156 4.992188 6.457031 C 4.992188 6.457031 3.042969 9.121094 6.152344 11.855469 C 6.152344 11.855469 5.207031 11.820312 4.390625 11.332031 C 4.390625 11.332031 4.09375 14.554688 7.613281 15.378906 C 7.613281 15.378906 6.921875 15.640625 5.816406 15.453125 C 5.816406 15.453125 6.433594 18.058594 9.566406 18.304688 C 9.566406 18.304688 7.089844 20.539062 3.574219 20.015625 Z M 3.578125 20.015625 "/>
</g>
</svg>
