<?xml version="1.0" encoding="UTF-8"?>
<svg xmlns="http://www.w3.org/2000/svg" xmlns:xlink="http://www.w3.org/1999/xlink" width="27px" height="27px" viewBox="0 0 27 27" version="1.1">
<g id="surface1">
<path style=" stroke:none;fill-rule:nonzero;fill:rgb(9.803922%,46.27451%,82.352941%);fill-opacity:1;" d="M 13.5 2.25 C 7.3125 2.25 2.25 7.3125 2.25 13.5 C 2.25 19.6875 7.3125 24.75 13.5 24.75 C 19.6875 24.75 24.75 19.6875 24.75 13.5 C 24.75 7.3125 19.6875 2.25 13.5 2.25 Z M 13.5 2.25 "/>
<path style=" stroke:none;fill-rule:nonzero;fill:rgb(100%,100%,100%);fill-opacity:1;" d="M 14.175781 18.675781 C 9.113281 18.675781 6.242188 15.242188 6.132812 9.449219 L 8.664062 9.449219 C 8.71875 13.667969 10.632812 15.46875 12.09375 15.804688 L 12.09375 9.449219 L 14.457031 9.449219 L 14.457031 13.105469 C 15.917969 12.9375 17.4375 11.304688 17.945312 9.449219 L 20.304688 9.449219 C 19.914062 11.699219 18.226562 13.386719 17.042969 14.0625 C 18.226562 14.625 20.136719 16.085938 20.8125 18.675781 L 18.167969 18.675781 C 17.605469 16.929688 16.199219 15.582031 14.34375 15.355469 L 14.34375 18.675781 Z M 14.175781 18.675781 "/>
</g>
</svg>
